<svg xmlns="http://www.w3.org/2000/svg" viewBox="0 0 64 64" role="img" aria-label="IonDroplet">
  <rect width="64" height="64" rx="14" fill="#13283d"/>
  <!-- La gota: el agua del riego -->
  <path d="M32 9c0 0 15 16.5 15 26.5a15 15 0 0 1-30 0C17 25.5 32 9 32 9z" fill="#2cb5d6"/>
  <!-- La hoja, dentro de la gota: el cultivo -->
  <path d="M32 46c0-7 4-11.5 10-12.5-.6 6.6-4.6 11.6-10 12.5z" fill="#ffffff"/>
  <path d="M32 46c0-5-3-8.6-7.6-9.4.5 5 3.5 8.6 7.6 9.4z" fill="#ffffff" opacity=".8"/>
  <!-- Brillo -->
  <path d="M24.5 30.5a8.5 8.5 0 0 1 3.2-6" stroke="#bfeaf5" stroke-width="2.6" stroke-linecap="round" fill="none"/>
</svg>
